<svg width="40" height="37" viewBox="0 0 40 37" fill="none" xmlns="http://www.w3.org/2000/svg">
<g filter="url(#filter0_d_597_2185)">
<path d="M26.5 3.00074C27.6771 3.00074 28.7812 3.2247 29.8125 3.67262C30.8438 4.12054 31.7448 4.7247 32.5156 5.48512C33.2865 6.24554 33.8906 7.14658 34.3281 8.18824C34.7656 9.22991 34.9896 10.3341 35 11.5007C35 12.6362 34.7865 13.7247 34.3594 14.7664C33.9323 15.808 33.3177 16.7247 32.5156 17.5164L19 31.0164L5.48438 17.5164C4.69271 16.7247 4.08333 15.808 3.65625 14.7664C3.22917 13.7247 3.01042 12.6362 3 11.5007C3 10.3341 3.21875 9.23512 3.65625 8.20387C4.09375 7.17262 4.70312 6.27158 5.48438 5.50074C6.26562 4.72991 7.16667 4.12054 8.1875 3.67262C9.20833 3.2247 10.3125 3.00074 11.5 3.00074C12.3646 3.00074 13.1354 3.0997 13.8125 3.29762C14.4896 3.49554 15.1146 3.76637 15.6875 4.11012C16.2604 4.45387 16.8125 4.87574 17.3438 5.37574C17.875 5.87574 18.4271 6.4122 19 6.98512C19.5729 6.40179 20.1198 5.86533 20.6406 5.37574C21.1615 4.88616 21.7135 4.46949 22.2969 4.12574C22.8802 3.78199 23.5104 3.50595 24.1875 3.29762C24.8646 3.08929 25.6354 2.99033 26.5 3.00074ZM31.0938 16.0945C31.7083 15.4799 32.1771 14.7768 32.5 13.9851C32.8229 13.1935 32.9844 12.3653 32.9844 11.5007C32.9844 10.5945 32.8177 9.75074 32.4844 8.96949C32.151 8.18824 31.6927 7.50595 31.1094 6.92262C30.526 6.33929 29.8385 5.88616 29.0469 5.56324C28.2552 5.24033 27.4062 5.07366 26.5 5.06324C25.625 5.06324 24.849 5.19866 24.1719 5.46949C23.4948 5.74033 22.8698 6.10491 22.2969 6.56324C21.724 7.02158 21.1771 7.52679 20.6562 8.07887C20.1354 8.63095 19.5833 9.20908 19 9.81324C18.4375 9.25074 17.8906 8.68304 17.3594 8.11012C16.8281 7.5372 16.276 7.02158 15.7031 6.56324C15.1302 6.10491 14.5 5.72991 13.8125 5.43824C13.125 5.14658 12.3542 5.00074 11.5 5.00074C10.6042 5.00074 9.76042 5.16741 8.96875 5.50074C8.17708 5.83408 7.48958 6.29762 6.90625 6.89137C6.32292 7.48512 5.85938 8.17783 5.51562 8.96949C5.17188 9.76116 5 10.6049 5 11.5007C5 12.3653 5.16146 13.1935 5.48438 13.9851C5.80729 14.7768 6.28125 15.4799 6.90625 16.0945L19 28.1882L31.0938 16.0945Z" fill="#E92F1F"/>
</g>
<defs>
<filter id="filter0_d_597_2185" x="0" y="0" width="40" height="36.0166" filterUnits="userSpaceOnUse" color-interpolation-filters="sRGB">
<feFlood flood-opacity="0" result="BackgroundImageFix"/>
<feColorMatrix in="SourceAlpha" type="matrix" values="0 0 0 0 0 0 0 0 0 0 0 0 0 0 0 0 0 0 127 0" result="hardAlpha"/>
<feOffset dx="1" dy="1"/>
<feGaussianBlur stdDeviation="2"/>
<feComposite in2="hardAlpha" operator="out"/>
<feColorMatrix type="matrix" values="0 0 0 0 0.946354 0 0 0 0 0.0119792 0 0 0 0 0.0119792 0 0 0 0.47 0"/>
<feBlend mode="normal" in2="BackgroundImageFix" result="effect1_dropShadow_597_2185"/>
<feBlend mode="normal" in="SourceGraphic" in2="effect1_dropShadow_597_2185" result="shape"/>
</filter>
</defs>
</svg>
