<svg width="64" height="64" viewBox="0 0 64 64" fill="none" xmlns="http://www.w3.org/2000/svg">
<path d="M33.9375 2.84375L8.78125 28H40V58C40 58.8333 39.8438 59.6146 39.5312 60.3438C39.2188 61.0729 38.7917 61.7083 38.25 62.25C37.7083 62.7917 37.0729 63.2188 36.3438 63.5312C35.6146 63.8438 34.8333 64 34 64H10C9.16667 64 8.38542 63.8438 7.65625 63.5312C6.92708 63.2188 6.29167 62.7917 5.75 62.25C5.20833 61.7083 4.78125 61.0729 4.46875 60.3438C4.15625 59.6146 4 58.8333 4 58V32.7812L2.84375 33.9375L0 31.125L8.5 22.625L5.65625 19.8125C5.28125 19.4375 5 19.0104 4.8125 18.5312C4.625 18.0521 4.52083 17.5312 4.5 16.9688C4.5 15.9062 4.88542 14.9688 5.65625 14.1562L14.125 5.65625C14.5 5.28125 14.9271 5 15.4062 4.8125C15.8854 4.625 16.4062 4.52083 16.9688 4.5C17.5104 4.5 18.0208 4.59375 18.5 4.78125C18.9792 4.96875 19.4167 5.26042 19.8125 5.65625L22.625 8.5L31.125 0L33.9375 2.84375ZM36 58V32H8V58C8 58.5417 8.19792 59.0104 8.59375 59.4062C8.98958 59.8021 9.45833 60 10 60H34C34.5417 60 35.0104 59.8021 35.4062 59.4062C35.8021 59.0104 36 58.5417 36 58ZM16.9688 8.5L8.5 16.9688L11.3125 19.8125L19.8125 11.3125L16.9688 8.5ZM60 8H64V24H48V20H57.125C55.5208 18.75 53.7812 17.8021 51.9062 17.1562C50.0312 16.5104 48.0729 16.1875 46.0312 16.1875C43.6354 16.1875 41.3542 16.6354 39.1875 17.5312C37.0208 18.4271 35.0938 19.7188 33.4062 21.4062L30.5938 18.5938C32.6771 16.5104 35.0312 14.9271 37.6562 13.8438C40.2812 12.7604 43.0729 12.2083 46.0312 12.1875C48.5938 12.1875 51.0729 12.6146 53.4688 13.4688C55.8646 14.3229 58.0417 15.5625 60 17.1875V8ZM32 36V56H28V36H32ZM24 36V56H20V36H24ZM16 36V56H12V36H16Z" fill="white"/>
</svg>
