<svg width="56" height="60" viewBox="0 0 56 60" fill="none" xmlns="http://www.w3.org/2000/svg">
<path d="M47.125 21.6562C48.4792 22.3438 49.6979 23.1875 50.7812 24.1875C51.8646 25.1875 52.8021 26.3125 53.5938 27.5625C54.3854 28.8125 54.9792 30.1458 55.375 31.5625C55.7708 32.9792 55.9792 34.4583 56 36H52C52 34.3542 51.6875 32.8021 51.0625 31.3438C50.4375 29.8854 49.5729 28.6146 48.4688 27.5312C47.3646 26.4479 46.0938 25.5938 44.6562 24.9688C43.2188 24.3438 41.6667 24.0208 40 24C38.3542 24 36.8021 24.3125 35.3438 24.9375C33.8854 25.5625 32.6146 26.4271 31.5312 27.5312C30.4479 28.6354 29.5938 29.9062 28.9688 31.3438C28.3438 32.7812 28.0208 34.3333 28 36C28 37.8958 27.5729 39.6979 26.7188 41.4062C25.8646 43.1146 24.6667 44.5312 23.125 45.6562C24.4792 46.3438 25.6979 47.1875 26.7812 48.1875C27.8646 49.1875 28.8021 50.3125 29.5938 51.5625C30.3854 52.8125 30.9792 54.1458 31.375 55.5625C31.7708 56.9792 31.9792 58.4583 32 60H28C28 58.3542 27.6875 56.8021 27.0625 55.3438C26.4375 53.8854 25.5729 52.6146 24.4688 51.5312C23.3646 50.4479 22.0938 49.5938 20.6562 48.9688C19.2188 48.3438 17.6667 48.0208 16 48C14.3542 48 12.8021 48.3125 11.3438 48.9375C9.88542 49.5625 8.61458 50.4271 7.53125 51.5312C6.44792 52.6354 5.59375 53.9062 4.96875 55.3438C4.34375 56.7812 4.02083 58.3333 4 60H0C0 58.4792 0.208333 57.0104 0.625 55.5938C1.04167 54.1771 1.63542 52.8438 2.40625 51.5938C3.17708 50.3438 4.10417 49.2188 5.1875 48.2188C6.27083 47.2188 7.5 46.3646 8.875 45.6562C7.35417 44.5312 6.16667 43.1146 5.3125 41.4062C4.45833 39.6979 4.02083 37.8958 4 36C4 34.3542 4.3125 32.8021 4.9375 31.3438C5.5625 29.8854 6.42708 28.6146 7.53125 27.5312C8.63542 26.4479 9.90625 25.5938 11.3438 24.9688C12.7812 24.3438 14.3333 24.0208 16 24C17.8958 24 19.6979 24.4271 21.4062 25.2812C23.1146 26.1354 24.5312 27.3333 25.6562 28.875C26.4479 27.3125 27.4583 25.9167 28.6875 24.6875C29.9167 23.4583 31.3125 22.4479 32.875 21.6562C31.3542 20.5312 30.1667 19.1146 29.3125 17.4062C28.4583 15.6979 28.0208 13.8958 28 12C28 10.3542 28.3125 8.80208 28.9375 7.34375C29.5625 5.88542 30.4271 4.61458 31.5312 3.53125C32.6354 2.44792 33.9062 1.59375 35.3438 0.96875C36.7812 0.34375 38.3333 0.0208333 40 0C41.6458 0 43.1979 0.3125 44.6562 0.9375C46.1146 1.5625 47.3854 2.42708 48.4688 3.53125C49.5521 4.63542 50.4062 5.90625 51.0312 7.34375C51.6562 8.78125 51.9792 10.3333 52 12C52 13.8958 51.5729 15.6979 50.7188 17.4062C49.8646 19.1146 48.6667 20.5312 47.125 21.6562ZM16 44C17.0833 44 18.1146 43.7917 19.0938 43.375C20.0729 42.9583 20.9167 42.3854 21.625 41.6562C22.3333 40.9271 22.9062 40.0833 23.3438 39.125C23.7812 38.1667 24 37.125 24 36C24 34.9167 23.7917 33.8854 23.375 32.9062C22.9583 31.9271 22.3854 31.0833 21.6562 30.375C20.9271 29.6667 20.0729 29.0938 19.0938 28.6562C18.1146 28.2188 17.0833 28 16 28C14.8958 28 13.8646 28.2083 12.9062 28.625C11.9479 29.0417 11.1042 29.6146 10.375 30.3438C9.64583 31.0729 9.07292 31.9271 8.65625 32.9062C8.23958 33.8854 8.02083 34.9167 8 36C8 37.1042 8.20833 38.1354 8.625 39.0938C9.04167 40.0521 9.61458 40.8958 10.3438 41.625C11.0729 42.3542 11.9167 42.9271 12.875 43.3438C13.8333 43.7604 14.875 43.9792 16 44ZM32 12C32 13.1042 32.2083 14.1354 32.625 15.0938C33.0417 16.0521 33.6146 16.8958 34.3438 17.625C35.0729 18.3542 35.9167 18.9271 36.875 19.3438C37.8333 19.7604 38.875 19.9792 40 20C41.0833 20 42.1146 19.7917 43.0938 19.375C44.0729 18.9583 44.9167 18.3854 45.625 17.6562C46.3333 16.9271 46.9062 16.0833 47.3438 15.125C47.7812 14.1667 48 13.125 48 12C48 10.9167 47.7917 9.88542 47.375 8.90625C46.9583 7.92708 46.3854 7.08333 45.6562 6.375C44.9271 5.66667 44.0729 5.09375 43.0938 4.65625C42.1146 4.21875 41.0833 4 40 4C38.8958 4 37.8646 4.20833 36.9062 4.625C35.9479 5.04167 35.1042 5.61458 34.375 6.34375C33.6458 7.07292 33.0729 7.92708 32.6562 8.90625C32.2396 9.88542 32.0208 10.9167 32 12Z" fill="white"/>
</svg>
