<svg width="32" height="29" viewBox="0 0 32 29" fill="none" xmlns="http://www.w3.org/2000/svg">
<path d="M23.5 0.000744048C24.6771 0.000744048 25.7812 0.224702 26.8125 0.672619C27.8438 1.12054 28.7448 1.7247 29.5156 2.48512C30.2865 3.24554 30.8906 4.14658 31.3281 5.18824C31.7656 6.22991 31.9896 7.33408 32 8.50074C32 9.63616 31.7865 10.7247 31.3594 11.7664C30.9323 12.808 30.3177 13.7247 29.5156 14.5164L16 28.0164L2.48438 14.5164C1.69271 13.7247 1.08333 12.808 0.65625 11.7664C0.229167 10.7247 0.0104167 9.63616 0 8.50074C0 7.33408 0.21875 6.23512 0.65625 5.20387C1.09375 4.17262 1.70312 3.27158 2.48438 2.50074C3.26562 1.72991 4.16667 1.12054 5.1875 0.672619C6.20833 0.224702 7.3125 0.000744048 8.5 0.000744048C9.36458 0.000744048 10.1354 0.0997024 10.8125 0.297619C11.4896 0.495536 12.1146 0.766369 12.6875 1.11012C13.2604 1.45387 13.8125 1.87574 14.3438 2.37574C14.875 2.87574 15.4271 3.4122 16 3.98512C16.5729 3.40179 17.1198 2.86533 17.6406 2.37574C18.1615 1.88616 18.7135 1.46949 19.2969 1.12574C19.8802 0.781994 20.5104 0.505952 21.1875 0.297619C21.8646 0.0892857 22.6354 -0.00967262 23.5 0.000744048ZM28.0938 13.0945C28.7083 12.4799 29.1771 11.7768 29.5 10.9851C29.8229 10.1935 29.9844 9.36533 29.9844 8.50074C29.9844 7.59449 29.8177 6.75074 29.4844 5.96949C29.151 5.18824 28.6927 4.50595 28.1094 3.92262C27.526 3.33929 26.8385 2.88616 26.0469 2.56324C25.2552 2.24033 24.4062 2.07366 23.5 2.06324C22.625 2.06324 21.849 2.19866 21.1719 2.46949C20.4948 2.74033 19.8698 3.10491 19.2969 3.56324C18.724 4.02158 18.1771 4.52679 17.6562 5.07887C17.1354 5.63095 16.5833 6.20908 16 6.81324C15.4375 6.25074 14.8906 5.68304 14.3594 5.11012C13.8281 4.5372 13.276 4.02158 12.7031 3.56324C12.1302 3.10491 11.5 2.72991 10.8125 2.43824C10.125 2.14658 9.35417 2.00074 8.5 2.00074C7.60417 2.00074 6.76042 2.16741 5.96875 2.50074C5.17708 2.83408 4.48958 3.29762 3.90625 3.89137C3.32292 4.48512 2.85938 5.17783 2.51562 5.96949C2.17188 6.76116 2 7.60491 2 8.50074C2 9.36533 2.16146 10.1935 2.48438 10.9851C2.80729 11.7768 3.28125 12.4799 3.90625 13.0945L16 25.1882L28.0938 13.0945Z" fill="#E92F1F"/>
</svg>
