<svg width="32" height="32" viewBox="0 0 32 32" fill="none" xmlns="http://www.w3.org/2000/svg">
<path d="M10 14C9.71875 14 9.45833 13.9479 9.21875 13.8438C8.97917 13.7396 8.77083 13.599 8.59375 13.4219C8.41667 13.2448 8.27083 13.0312 8.15625 12.7812C8.04167 12.5312 7.98958 12.2708 8 12C8 11.7188 8.05208 11.4583 8.15625 11.2188C8.26042 10.9792 8.40104 10.7708 8.57812 10.5938C8.75521 10.4167 8.96875 10.2708 9.21875 10.1562C9.46875 10.0417 9.72917 9.98958 10 10C10.2812 10 10.5417 10.0521 10.7812 10.1562C11.0208 10.2604 11.2292 10.401 11.4062 10.5781C11.5833 10.7552 11.7292 10.9688 11.8438 11.2188C11.9583 11.4688 12.0104 11.7292 12 12C12 12.2812 11.9479 12.5417 11.8438 12.7812C11.7396 13.0208 11.599 13.2292 11.4219 13.4062C11.2448 13.5833 11.0312 13.7292 10.7812 13.8438C10.5312 13.9583 10.2708 14.0104 10 14ZM22 14C21.7188 14 21.4583 13.9479 21.2188 13.8438C20.9792 13.7396 20.7708 13.599 20.5938 13.4219C20.4167 13.2448 20.2708 13.0312 20.1562 12.7812C20.0417 12.5312 19.9896 12.2708 20 12C20 11.7188 20.0521 11.4583 20.1562 11.2188C20.2604 10.9792 20.401 10.7708 20.5781 10.5938C20.7552 10.4167 20.9688 10.2708 21.2188 10.1562C21.4688 10.0417 21.7292 9.98958 22 10C22.2812 10 22.5417 10.0521 22.7812 10.1562C23.0208 10.2604 23.2292 10.401 23.4062 10.5781C23.5833 10.7552 23.7292 10.9688 23.8438 11.2188C23.9583 11.4688 24.0104 11.7292 24 12C24 12.2812 23.9479 12.5417 23.8438 12.7812C23.7396 13.0208 23.599 13.2292 23.4219 13.4062C23.2448 13.5833 23.0312 13.7292 22.7812 13.8438C22.5312 13.9583 22.2708 14.0104 22 14ZM16 0C17.4688 0 18.8854 0.1875 20.25 0.5625C21.6146 0.9375 22.8906 1.47396 24.0781 2.17188C25.2656 2.86979 26.3438 3.70312 27.3125 4.67188C28.2812 5.64062 29.1146 6.72396 29.8125 7.92188C30.5104 9.11979 31.0469 10.3958 31.4219 11.75C31.7969 13.1042 31.9896 14.5208 32 16C32 17.4688 31.8125 18.8854 31.4375 20.25C31.0625 21.6146 30.526 22.8906 29.8281 24.0781C29.1302 25.2656 28.2969 26.3438 27.3281 27.3125C26.3594 28.2812 25.276 29.1146 24.0781 29.8125C22.8802 30.5104 21.6042 31.0469 20.25 31.4219C18.8958 31.7969 17.4792 31.9896 16 32C14.5312 32 13.1146 31.8125 11.75 31.4375C10.3854 31.0625 9.10938 30.526 7.92188 29.8281C6.73438 29.1302 5.65625 28.2969 4.6875 27.3281C3.71875 26.3594 2.88542 25.276 2.1875 24.0781C1.48958 22.8802 0.953125 21.6094 0.578125 20.2656C0.203125 18.9219 0.0104167 17.5 0 16C0 14.5312 0.1875 13.1146 0.5625 11.75C0.9375 10.3854 1.47396 9.10938 2.17188 7.92188C2.86979 6.73438 3.70312 5.65625 4.67188 4.6875C5.64062 3.71875 6.72396 2.88542 7.92188 2.1875C9.11979 1.48958 10.3906 0.953125 11.7344 0.578125C13.0781 0.203125 14.5 0.0104167 16 0ZM16 30C17.2812 30 18.5156 29.8333 19.7031 29.5C20.8906 29.1667 22.0052 28.6979 23.0469 28.0938C24.0885 27.4896 25.0365 26.7552 25.8906 25.8906C26.7448 25.026 27.474 24.0833 28.0781 23.0625C28.6823 22.0417 29.1562 20.9271 29.5 19.7188C29.8438 18.5104 30.0104 17.2708 30 16C30 14.7188 29.8333 13.4844 29.5 12.2969C29.1667 11.1094 28.6979 9.99479 28.0938 8.95312C27.4896 7.91146 26.7552 6.96354 25.8906 6.10938C25.026 5.25521 24.0833 4.52604 23.0625 3.92188C22.0417 3.31771 20.9271 2.84375 19.7188 2.5C18.5104 2.15625 17.2708 1.98958 16 2C14.7188 2 13.4844 2.16667 12.2969 2.5C11.1094 2.83333 9.99479 3.30208 8.95312 3.90625C7.91146 4.51042 6.96354 5.24479 6.10938 6.10938C5.25521 6.97396 4.52604 7.91667 3.92188 8.9375C3.31771 9.95833 2.84375 11.0729 2.5 12.2812C2.15625 13.4896 1.98958 14.7292 2 16C2 17.2812 2.16667 18.5156 2.5 19.7031C2.83333 20.8906 3.30208 22.0052 3.90625 23.0469C4.51042 24.0885 5.24479 25.0365 6.10938 25.8906C6.97396 26.7448 7.91667 27.474 8.9375 28.0781C9.95833 28.6823 11.0729 29.1562 12.2812 29.5C13.4896 29.8438 14.7292 30.0104 16 30ZM16 24C16.7604 24 17.4948 23.8958 18.2031 23.6875C18.9115 23.4792 19.5781 23.1823 20.2031 22.7969C20.8281 22.4115 21.3802 21.9427 21.8594 21.3906C22.3385 20.8385 22.7604 20.224 23.125 19.5469L24.9219 20.4531C24.4948 21.2969 23.9688 22.0625 23.3438 22.75C22.7188 23.4375 22.0208 24.0208 21.25 24.5C20.4792 24.9792 19.651 25.349 18.7656 25.6094C17.8802 25.8698 16.9583 26 16 26C15.0417 26 14.1198 25.8698 13.2344 25.6094C12.349 25.349 11.5208 24.9792 10.75 24.5C9.97917 24.0208 9.28125 23.4375 8.65625 22.75C8.03125 22.0625 7.50521 21.2969 7.07812 20.4531L8.875 19.5469C9.21875 20.224 9.63542 20.8385 10.125 21.3906C10.6146 21.9427 11.1719 22.4115 11.7969 22.7969C12.4219 23.1823 13.0833 23.4792 13.7812 23.6875C14.4792 23.8958 15.2188 24 16 24Z" fill="white"/>
</svg>
