<svg width="32" height="24" viewBox="0 0 32 24" fill="none" xmlns="http://www.w3.org/2000/svg">
<path d="M23 6C22.7292 6 22.4948 5.90104 22.2969 5.70312C22.099 5.50521 22 5.27083 22 5C22 4.72917 22.099 4.49479 22.2969 4.29688C22.4948 4.09896 22.7292 4 23 4C23.2708 4 23.5052 4.09896 23.7031 4.29688C23.901 4.49479 24 4.72917 24 5C24 5.27083 23.901 5.50521 23.7031 5.70312C23.5052 5.90104 23.2708 6 23 6ZM32 4V24H4V20H0V0H28V4H32ZM24.5781 18L19 12.4062L16.4062 15L19.4219 18H24.5781ZM2 2V10.5781L7 5.59375L15 13.5938L19 9.59375L26 16.5781V2H2ZM16.5781 18L7 8.40625L2 13.4219V18H16.5781ZM30 6H28V20H6V22H30V6Z" fill="white"/>
</svg>
