<svg width="32" height="26" viewBox="0 0 32 26" fill="none" xmlns="http://www.w3.org/2000/svg">
<path d="M22 5C22 4.72917 22.099 4.49479 22.2969 4.29688C22.4948 4.09896 22.7292 4 23 4C23.2708 4 23.5052 4.09896 23.7031 4.29688C23.901 4.49479 24 4.72917 24 5C24 5.27083 23.901 5.50521 23.7031 5.70312C23.5052 5.90104 23.2708 6 23 6C22.7292 6 22.4948 5.90104 22.2969 5.70312C22.099 5.50521 22 5.27083 22 5ZM32 20V22H28V26H26V22H22V20H26V16H28V20H32ZM14.4062 15L20 20.5781V22H0V0H28V14H26V2H2V8.57812L5 5.59375L13 13.5938L17 9.59375L24 16.5781V18H22.5781L17 12.4062L14.4062 15ZM5 8.40625L2 11.4219V20H16.5781L5 8.40625Z" fill="white"/>
</svg>
